DataType=double
version=3
OpenSimVersion=4.2-2021-03-12-fcedec9
endheader
time	ground_force_r_vx	ground_force_r_vy	ground_force_r_vz	ground_force_r_px	ground_force_r_py	ground_force_r_pz	ground_force_l_vx	ground_force_l_vy	ground_force_l_vz	ground_force_l_px	ground_force_l_py	ground_force_l_pz	ground_torque_r_x	ground_torque_r_y	ground_torque_r_z	ground_torque_l_x	ground_torque_l_y	ground_torque_l_z
0.868	-11.17199287482225	4.347784498883692	0	0	0	0	0	0	0	0	0	0	0	0	-0.0919702359329298	0	0	0
0.8694376036085002	-27.72000024597233	9.968765175888915	0	0	0	0	0	0	0	0	0	0	0	0	-0.2311417293050947	0	0	0
0.8708752072170005	-63.88167153705113	22.26286030723015	0	0	0	0	0	0	0	0	0	0	0	0	-0.4951874501804107	0	0	0
0.8723128108255007	-126.7766913115268	44.55485432885713	0	0	0	0	0	0	0	0	0	0	0	0	-0.8492523690065149	0	0	0
0.873750414434001	-207.0515770789767	75.6260500186221	0	0	0	0	0	0	0	0	0	0	0	0	-1.107664442592296	0	0	0
0.8751880180425012	-312.5393069734401	121.959537382467	0	0	0	0	0	0	0	0	0	0	0	0	-1.171725367055447	0	0	0
0.8766256216510016	-498.0487403483274	216.6924485556639	0	0	0	0	0	0	0	0	0	0	0	0	-0.8414739906558988	0	0	0
0.8780632252595018	-670.3691156876808	347.0355056176966	0	0	0	0	0	0	0	0	0	0	0	0	0.9995242121747377	0	0	0
0.8795008288680021	-726.0976907501841	472.6816470246823	0	0	0	0	0	0	0	0	0	0	0	0	5.331441875994505	0	0	0
0.8809384324765023	-712.1173328486434	597.1745069469706	0	0	0	0	0	0	0	0	0	0	0	0	14.03137160939458	0	0	0
0.8823760360850026	-696.2481483735615	753.0205457878351	0	0	0	0	0	0	0	0	0	0	0	0	31.35624591438059	0	0	0
0.8838136396935028	-469.457177471706	1057.282963893628	0	0	0	0	0	0	0	0	0	0	0	0	71.88651213739838	0	0	0
0.885251243302003	-445.8628519581948	1337.204658403968	0	0	0	0	0	0	0	0	0	0	0	0	106.750067557659	0	0	0
0.8866888469105033	-423.7265784575826	1453.50035272965	0	0	0	0	0	0	0	0	0	0	0	0	121.0892751815886	0	0	0
0.8881264505190035	-348.3579180498941	1450.510745632805	0	0	0	0	0	0	0	0	0	0	0	0	117.3976755743115	0	0	0
0.8895640541275038	-275.4782254447396	1477.690265409462	0	0	0	0	0	0	0	0	0	0	0	0	119.1731658544349	0	0	0
0.891001657736004	-206.7778887769262	1553.71898942275	0	0	0	0	0	0	0	0	0	0	0	0	130.8334192101325	0	0	0
0.8924392613445044	-147.8560530853135	1637.578379359501	0	0	0	0	0	0	0	0	0	0	0	0	148.1305500082549	0	0	0
0.8938768649530046	-118.7658917143168	1701.779216078303	0	0	0	0	0	0	0	0	0	0	0	0	167.1738627559209	0	0	0
0.8953144685615049	-104.1944856042239	1737.302974916884	0	0	0	0	0	0	0	0	0	0	0	0	185.6650780001251	0	0	0
0.8967520721700051	-110.3585512003632	1752.15376012446	0	0	0	0	0	0	0	0	0	0	0	0	203.3346706138497	0	0	0
0.8981896757785054	-125.8651075747269	1750.961249560489	0	0	0	0	0	0	0	0	0	0	0	0	220.0864007995015	0	0	0
0.8996272793870056	-158.6143371652679	1740.839835083445	0	0	0	0	0	0	0	0	0	0	0	0	235.9133367895967	0	0	0
0.9010648829955058	-189.7412987072289	1724.490635792744	0	0	0	0	0	0	0	0	0	0	0	0	250.6053615487015	0	0	0
0.9025024866040061	-215.7019063766659	1701.024756685063	0	0	0	0	0	0	0	0	0	0	0	0	263.1900364222258	0	0	0
0.9039400902125063	-245.4489898437218	1674.218863156147	0	0	0	0	0	0	0	0	0	0	0	0	273.8771554146053	0	0	0
0.9053776938210066	-275.9782922316388	1654.706620042418	0	0	0	0	0	0	0	0	0	0	0	0	282.8854673901579	0	0	0
0.9068152974295068	-292.4688745419927	1687.254860781294	0	0	0	0	0	0	0	0	0	0	0	0	291.0364719147214	0	0	0
0.9082529010380072	-296.5000122081046	1688.611037287553	0	0	0	0	0	0	0	0	0	0	0	0	294.3875608797424	0	0	0
0.9096905046465074	-312.6207134557979	1676.805069611064	0	0	0	0	0	0	0	0	0	0	0	0	294.903734154359	0	0	0
0.9111281082550077	-315.0764254693877	1662.871037797197	0	0	0	0	0	0	0	0	0	0	0	0	294.8395885853122	0	0	0
0.9125657118635079	-316.5221807399228	1648.537309746283	0	0	0	0	0	0	0	0	0	0	0	0	294.304709524525	0	0	0
0.9140033154720082	-310.2927190464281	1638.893718200609	0	0	0	0	0	0	0	0	0	0	0	0	294.3900740986674	0	0	0
0.9154409190805084	-302.2882395215943	1632.571652020435	0	0	0	0	0	0	0	0	0	0	0	0	294.822884404243	0	0	0
0.9168785226890086	-290.3772754074711	1630.031713031372	0	0	0	0	0	0	0	0	0	0	0	0	295.8050735668049	0	0	0
0.9183161262975089	-277.9741182073683	1630.187322161433	0	0	0	0	0	0	0	0	0	0	0	0	297.1023245827777	0	0	0
0.9197537299060091	-263.7699500735235	1634.117695482867	0	0	0	0	0	0	0	0	0	0	0	0	298.9740220960422	0	0	0
0.9211913335145094	-249.6072491124922	1640.625247593857	0	0	0	0	0	0	0	0	0	0	0	0	301.1834249851728	0	0	0
0.9226289371230096	-234.4184410001165	1649.827116555596	0	0	0	0	0	0	0	0	0	0	0	0	303.806299151372	0	0	0
0.92406654073151	-219.2488725017629	1660.628257713681	0	0	0	0	0	0	0	0	0	0	0	0	306.6290974510387	0	0	0
0.9255041443400102	-203.165475484644	1672.807390074477	0	0	0	0	0	0	0	0	0	0	0	0	309.6596760484163	0	0	0
0.9269417479485105	-186.6579016591422	1685.363610764738	0	0	0	0	0	0	0	0	0	0	0	0	312.723705803107	0	0	0
0.9283793515570107	-169.2801413386328	1698.050807278435	0	0	0	0	0	0	0	0	0	0	0	0	315.8143967297548	0	0	0
0.929816955165511	-151.4065862499205	1710.143459847883	0	0	0	0	0	0	0	0	0	0	0	0	318.8081796893558	0	0	0
0.9312545587740112	-132.8861737518243	1721.450872591214	0	0	0	0	0	0	0	0	0	0	0	0	321.6934008256835	0	0	0
0.9326921623825115	-114.0987341664476	1731.545233405097	0	0	0	0	0	0	0	0	0	0	0	0	324.3886924605933	0	0	0
0.9341297659910117	-94.95421315928434	1740.316801868624	0	0	0	0	0	0	0	0	0	0	0	0	326.8848132911924	0	0	0
0.9355673695995119	-75.95481775999274	1747.694615125329	0	0	0	0	0	0	0	0	0	0	0	0	329.1421100045128	0	0	0
0.9370049732080122	-56.81567656723404	1753.649988987411	0	0	0	0	0	0	0	0	0	0	0	0	331.1643576261667	0	0	0
0.9384425768165124	-37.63964464094289	1757.985877359373	0	0	0	0	0	0	0	0	0	0	0	0	332.914899411363	0	0	0
0.9398801804250128	-18.46730710236874	1760.790768372426	0	0	0	0	0	0	0	0	0	0	0	0	334.4094909640228	0	0	0
0.941317784033513	0.4707028546021483	1762.113629248624	0	0	0	0	0	0	0	0	0	0	0	0	335.641775873173	0	0	0
0.9427553876420133	19.33173237857637	1761.995600810682	0	0	0	0	0	0	0	0	0	0	0	0	336.6241072650909	0	0	0
0.9441929912505135	38.09676064102584	1760.384512291324	0	0	0	0	0	0	0	0	0	0	0	0	337.3463285700722	0	0	0
0.9456305948590138	56.7710592183452	1757.335916764955	0	0	0	0	0	0	0	0	0	0	0	0	337.8186055950169	0	0	0
0.947068198467514	75.34621674907366	1752.810341406419	0	0	0	0	0	0	0	0	0	0	0	0	338.0327152943462	0	0	0
0.9485058020760142	93.80603213439807	1746.82820017573	0	0	0	0	0	0	0	0	0	0	0	0	337.9894153994486	0	0	0
0.9499434056845145	112.0687139911562	1739.401934284514	0	0	0	0	0	0	0	0	0	0	0	0	337.6822620726949	0	0	0
0.9513810092930147	130.185663776031	1730.501275172359	0	0	0	0	0	0	0	0	0	0	0	0	337.1049651348848	0	0	0
0.952818612901515	148.1539903849034	1720.055165319917	0	0	0	0	0	0	0	0	0	0	0	0	336.2414890666502	0	0	0
0.9542562165100152	165.9850943135761	1708.00725593843	0	0	0	0	0	0	0	0	0	0	0	0	335.0804718734465	0	0	0
0.9556938201185156	183.6493874421124	1694.273577842588	0	0	0	0	0	0	0	0	0	0	0	0	333.6032707555318	0	0	0
0.9571314237270158	201.1168265481357	1678.782650053673	0	0	0	0	0	0	0	0	0	0	0	0	331.7950326271363	0	0	0
0.9585690273355161	218.1894083035512	1661.574118218128	0	0	0	0	0	0	0	0	0	0	0	0	329.64995309966	0	0	0
0.9600066309440163	235.0610770960758	1642.922951102888	0	0	0	0	0	0	0	0	0	0	0	0	327.1843781377061	0	0	0
0.9614442345525166	251.7839062453372	1624.444051615766	0	0	0	0	0	0	0	0	0	0	0	0	324.5013522899399	0	0	0
0.9628818381610168	268.9534271101884	1604.782994325391	0	0	0	0	0	0	0	0	0	0	0	0	321.4842039538145	0	0	0
0.9643194417695171	286.0804488249058	1582.874781345346	0	0	0	0	0	0	0	0	0	0	0	0	318.1014127235196	0	0	0
0.9657570453780173	302.5412246485265	1559.39408386593	0	0	0	0	0	0	0	0	0	0	0	0	314.4321673283072	0	0	0
0.9671946489865175	318.5326395183185	1534.377294488974	0	0	0	0	0	0	0	0	0	0	0	0	310.4878882306776	0	0	0
0.9686322525950178	334.0666247387671	1507.860938017081	0	0	0	0	0	0	0	0	0	0	0	0	306.2762875272557	0	0	0
0.970069856203518	349.0749884350844	1480.002944896632	0	0	0	0	0	0	0	0	0	0	0	0	301.8232317294748	0	0	0
0.9715074598120184	363.6267398273032	1450.81999644443	0	0	0	0	0	0	0	0	0	0	0	0	297.1395706797545	0	0	0
0.9729450634205186	377.7183091216485	1420.556545003453	0	0	0	0	0	0	0	0	0	0	0	0	292.2726854564876	0	0	0
0.9743826670290189	392.3400189768631	1387.151050285193	0	0	0	0	0	0	0	0	0	0	0	0	286.9368697281234	0	0	0
0.9758202706375191	406.6367643342508	1351.441586249101	0	0	0	0	0	0	0	0	0	0	0	0	281.2240209514539	0	0	0
0.9772578742460194	419.8793375065875	1315.052758463026	0	0	0	0	0	0	0	0	0	0	0	0	275.3686579791163	0	0	0
